<svg width="32" height="32" viewBox="0 0 32 32" fill="none" xmlns="http://www.w3.org/2000/svg">
<mask id="mask0_33_342" style="mask-type:alpha" maskUnits="userSpaceOnUse" x="0" y="2" width="32" height="28">
<path d="M11.4625 11.6217C11.4625 13.4625 10.0299 14.9549 8.26265 14.9549C6.49541 14.9549 5.06278 13.4625 5.06278 11.6217C5.06278 9.78079 6.49541 8.28846 8.26265 8.28846C10.0299 8.28846 11.4625 9.78079 11.4625 11.6217Z" fill="#B4DBFF"/>
<path fill-rule="evenodd" clip-rule="evenodd" d="M0.000732422 6.0004C0.000732422 4.15953 1.43337 2.66721 3.20061 2.66721H28.7996C30.5668 2.66721 31.9995 4.15953 31.9995 6.0004V25.9996C31.9995 27.8405 30.5669 29.3328 28.7996 29.3328H26.6874C26.6804 29.3328 26.6734 29.3328 26.6664 29.3328H3.92988C3.92386 29.3328 3.91783 29.3328 3.91181 29.3328H3.20061C1.43337 29.3328 0.000732422 27.8405 0.000732422 25.9996V6.0004ZM3.20061 5.1671H28.7996C29.2414 5.1671 29.5996 5.54019 29.5996 6.0004V16.3868L22.6474 9.33364L10.8198 21.3332L7.33568 17.7984L2.40064 22.8052V6.0004C2.40064 5.54018 2.7588 5.1671 3.20061 5.1671Z" fill="#B4DBFF"/>
</mask>
<g mask="url(#mask0_33_342)">
<rect x="0.000488281" y="-0.000289917" width="31.9987" height="31.9987" fill="#B4DBFF"/>
</g>
</svg>
