<svg width="21" height="20" viewBox="0 0 21 20" fill="none" xmlns="http://www.w3.org/2000/svg">
<mask id="mask0_33_570" style="mask-type:alpha" maskUnits="userSpaceOnUse" x="0" y="0" width="21" height="20">
<path fill-rule="evenodd" clip-rule="evenodd" d="M13.5583 7.91558C12.8796 7.81694 12.2929 7.39059 11.9895 6.77552L10.5 3.75582L9.01049 6.77552C8.7071 7.39059 8.12042 7.81694 7.44172 7.91558L4.10826 8.40004L6.52077 10.7521C7.01173 11.2308 7.23572 11.9204 7.11974 12.5962L6.55021 15.915L9.53049 14.3481C10.1374 14.029 10.8625 14.029 11.4695 14.3481L14.4498 15.915L13.8802 12.5962C13.7643 11.9204 13.9883 11.2308 14.4792 10.7521L16.8917 8.40004L13.5583 7.91558ZM19.8535 6.72526C20.2667 6.78665 20.5548 7.1692 20.4911 7.58244C20.4674 7.74774 20.3895 7.89887 20.2714 8.01458L15.9336 12.2438L16.9584 18.2158C17.0292 18.6267 16.753 19.0163 16.3421 19.0872C16.1791 19.1155 16.0091 19.0895 15.8627 19.0116L10.5 16.1921L5.13727 19.0116C5.01259 19.0774 4.87197 19.107 4.73134 19.097C4.59072 19.0869 4.45571 19.0377 4.34164 18.9549C4.22757 18.872 4.13899 18.7589 4.08596 18.6282C4.03292 18.4976 4.01755 18.3547 4.04158 18.2158L5.06643 12.2438L0.728546 8.01458C0.584902 7.87456 0.502723 7.68324 0.500066 7.48266C0.49741 7.28208 0.574493 7.08864 0.714378 6.94487C0.830086 6.8268 0.981215 6.74887 1.14651 6.72526L7.14209 5.8539L9.82227 0.420337C10.0088 0.0472366 10.4622 -0.106254 10.8353 0.0779347C10.9841 0.151138 11.1045 0.271569 11.1777 0.420337L13.8579 5.8539L19.8535 6.72526Z" fill="#006FFD"/>
</mask>
<g mask="url(#mask0_33_570)">
<rect x="0.5" width="20" height="20" fill="#D4D6DD"/>
</g>
</svg>
