<svg width="21" height="20" viewBox="0 0 21 20" fill="none" xmlns="http://www.w3.org/2000/svg">
<g clip-path="url(#clip0_33_117)">
<mask id="mask0_33_117" style="mask-type:alpha" maskUnits="userSpaceOnUse" x="0" y="0" width="21" height="20">
<path d="M19.8536 6.72533L13.8579 5.85397L11.1777 0.420341C11.1045 0.271572 10.9841 0.15114 10.8353 0.0779356C10.4622 -0.106255 10.0088 0.0472372 9.82225 0.420341L7.14204 5.85397L1.1464 6.72533C0.981098 6.74895 0.829967 6.82687 0.714258 6.94494C0.574371 7.08872 0.497288 7.28216 0.499944 7.48274C0.502601 7.68332 0.584781 7.87464 0.728426 8.01467L5.06635 12.244L4.0415 18.216C4.01746 18.3549 4.03284 18.4978 4.08587 18.6284C4.13891 18.7591 4.22749 18.8722 4.34156 18.9551C4.45563 19.0379 4.59064 19.0871 4.73127 19.0972C4.8719 19.1072 5.01252 19.0776 5.1372 19.0118L10.5 16.1923L15.8628 19.0118C16.0092 19.0897 16.1792 19.1157 16.3421 19.0874C16.753 19.0165 17.0293 18.6269 16.9585 18.216L15.9336 12.244L20.2715 8.01467C20.3896 7.89896 20.4675 7.74783 20.4911 7.58253C20.5549 7.16928 20.2668 6.78673 19.8536 6.72533Z" fill="#006FFD"/>
</mask>
<g mask="url(#mask0_33_117)">
<rect x="0.5" width="20" height="20" fill="#CB30E0"/>
</g>
</g>
<defs>
<clipPath id="clip0_33_117">
<rect width="20" height="20" fill="white" transform="translate(0.5)"/>
</clipPath>
</defs>
</svg>
